<svg version="1.0" xmlns="http://www.w3.org/2000/svg"
 width="500.000000pt" height="247.000000pt" viewBox="0 0 500.000000 247.000000"
 preserveAspectRatio="xMidYMid meet">

<rect width="100%" height="100%" fill="#FFFF00"/>

<g transform="translate(0.000000,247.000000) scale(0.100000,-0.100000)"
fill="#FFFFFF" stroke="none">
<path d="M1759 1556 c-99 -35 -151 -116 -151 -236 0 -114 31 -179 104 -220 51
-29 154 -37 218 -18 l45 14 3 58 c3 51 1 58 -14 52 -145 -55 -214 -19 -214
114 0 76 24 126 66 136 24 6 87 -4 125 -20 21 -9 67 93 47 105 -44 28 -171 36
-229 15z"/>
<path d="M2140 1553 c-38 -14 -50 -36 -50 -90 0 -68 -11 -89 -50 -96 -27 -6
-30 -10 -30 -47 0 -33 3 -40 20 -40 37 0 60 -35 60 -93 0 -29 6 -61 13 -71 13
-18 71 -35 120 -36 25 0 27 3 27 40 0 32 -4 40 -18 40 -30 0 -42 22 -42 77 0
48 -3 55 -29 71 l-30 18 30 11 c28 11 29 14 29 73 0 59 1 61 30 71 25 9 30 16
30 45 l0 34 -47 -1 c-27 0 -55 -3 -63 -6z"/>
<path d="M2300 1527 c0 -30 4 -37 30 -46 28 -9 30 -13 30 -64 0 -55 19 -87 51
-87 8 0 0 -9 -18 -20 -30 -18 -32 -23 -35 -82 -3 -60 -4 -63 -30 -66 -25 -3
-28 -7 -28 -43 0 -37 1 -39 33 -39 45 0 102 17 117 35 7 9 15 43 17 78 4 64
19 87 55 87 14 0 18 8 18 39 0 36 -3 40 -34 51 -32 10 -33 12 -39 76 -7 87
-25 106 -107 112 l-60 4 0 -35z"/>
<path d="M2590 1320 l0 -242 133 4 c123 3 135 5 179 31 67 39 100 98 106 192
7 114 -23 181 -101 226 -38 21 -57 24 -179 27 l-138 4 0 -242z m245 107 c20
-16 28 -35 32 -69 12 -103 -26 -168 -98 -168 l-39 0 0 130 0 130 39 0 c27 0
48 -7 66 -23z"/>
<path d="M3110 1320 l0 -240 151 0 150 0 -3 53 -3 52 -77 3 -78 3 0 39 0 40
70 0 70 0 0 55 0 55 -70 0 -70 0 0 35 0 34 78 3 77 3 3 53 3 52 -150 0 -151 0
0 -240z"/>
</g>
</svg>
