<svg version="1.0" xmlns="http://www.w3.org/2000/svg" viewBox="0 0 350 420"
 preserveAspectRatio="xMidYMid meet">

<g transform="translate(0.000000,374.000000) scale(0.100000,-0.100000)"
fill="#B22222" stroke="none">
<path d="M2545 2491 l-260 -87 -3 -356 -2 -356 260 -87 c143 -48 264 -84 269
-81 5 4 9 78 9 174 0 92 4 166 8 166 28 -4 504 -167 504 -172 0 -4 -117 -45
-260 -92 l-260 -85 1 -172 c0 -95 4 -175 8 -178 5 -2 125 35 267 84 l259 88 2
356 3 355 -267 89 -266 89 2 165 c1 90 -2 169 -7 176 -5 9 -76 -11 -267 -76z
m266 -446 c0 -93 -4 -169 -8 -169 -30 5 -503 167 -503 172 1 9 480 171 499
169 11 -2 13 -36 12 -172z"/>
</g>
</svg>
